<mxfile host="app.diagrams.net" modified="2024-03-26T06:36:27.286Z" agent="Mozilla/5.0 (Macintosh; Intel Mac OS X 10_15_7) AppleWebKit/537.36 (KHTML, like Gecko) Chrome/122.0.0.0 Safari/537.36" etag="yEsQwL4JvHMi7ppLq4MJ" version="24.0.7" type="github" pages="3">
  <diagram name="现有问题" id="ln1VuoLW2IpL9ToIxIuf">
    <mxGraphModel dx="1434" dy="786" grid="0" gridSize="10" guides="1" tooltips="1" connect="1" arrows="1" fold="1" page="0" pageScale="1" pageWidth="1200" pageHeight="1920" math="0" shadow="0">
      <root>
        <mxCell id="0" />
        <mxCell id="1" parent="0" />
        <mxCell id="6QVBEpiF2g4ADmfY6hBt-1" value="" style="endArrow=classic;html=1;rounded=0;" edge="1" parent="1">
          <mxGeometry width="50" height="50" relative="1" as="geometry">
            <mxPoint x="98" y="492" as="sourcePoint" />
            <mxPoint x="798" y="492" as="targetPoint" />
          </mxGeometry>
        </mxCell>
        <mxCell id="6QVBEpiF2g4ADmfY6hBt-2" value="" style="endArrow=none;dashed=1;html=1;dashPattern=1 3;strokeWidth=8;rounded=0;" edge="1" parent="1">
          <mxGeometry width="50" height="50" relative="1" as="geometry">
            <mxPoint x="130" y="488" as="sourcePoint" />
            <mxPoint x="737" y="488" as="targetPoint" />
          </mxGeometry>
        </mxCell>
        <mxCell id="6QVBEpiF2g4ADmfY6hBt-3" value="-160" style="ellipse;whiteSpace=wrap;html=1;aspect=fixed;" vertex="1" parent="1">
          <mxGeometry x="153" y="449" width="25" height="25" as="geometry" />
        </mxCell>
        <mxCell id="6QVBEpiF2g4ADmfY6hBt-4" value="-162" style="ellipse;whiteSpace=wrap;html=1;aspect=fixed;" vertex="1" parent="1">
          <mxGeometry x="186" y="449" width="25" height="25" as="geometry" />
        </mxCell>
        <mxCell id="6QVBEpiF2g4ADmfY6hBt-5" value="-161" style="ellipse;whiteSpace=wrap;html=1;aspect=fixed;" vertex="1" parent="1">
          <mxGeometry x="219" y="449" width="25" height="25" as="geometry" />
        </mxCell>
        <mxCell id="6QVBEpiF2g4ADmfY6hBt-6" value="-160" style="ellipse;whiteSpace=wrap;html=1;aspect=fixed;" vertex="1" parent="1">
          <mxGeometry x="252" y="449" width="25" height="25" as="geometry" />
        </mxCell>
        <mxCell id="6QVBEpiF2g4ADmfY6hBt-7" value="-158" style="ellipse;whiteSpace=wrap;html=1;aspect=fixed;" vertex="1" parent="1">
          <mxGeometry x="285" y="449" width="25" height="25" as="geometry" />
        </mxCell>
        <mxCell id="6QVBEpiF2g4ADmfY6hBt-8" value="-160" style="ellipse;whiteSpace=wrap;html=1;aspect=fixed;" vertex="1" parent="1">
          <mxGeometry x="318" y="449" width="25" height="25" as="geometry" />
        </mxCell>
        <mxCell id="6QVBEpiF2g4ADmfY6hBt-9" value="" style="ellipse;whiteSpace=wrap;html=1;aspect=fixed;" vertex="1" parent="1">
          <mxGeometry x="479" y="449" width="25" height="25" as="geometry" />
        </mxCell>
        <mxCell id="6QVBEpiF2g4ADmfY6hBt-10" value="" style="ellipse;whiteSpace=wrap;html=1;aspect=fixed;" vertex="1" parent="1">
          <mxGeometry x="512" y="449" width="25" height="25" as="geometry" />
        </mxCell>
        <mxCell id="6QVBEpiF2g4ADmfY6hBt-11" value="" style="ellipse;whiteSpace=wrap;html=1;aspect=fixed;" vertex="1" parent="1">
          <mxGeometry x="545" y="449" width="25" height="25" as="geometry" />
        </mxCell>
        <mxCell id="6QVBEpiF2g4ADmfY6hBt-12" value="" style="ellipse;whiteSpace=wrap;html=1;aspect=fixed;" vertex="1" parent="1">
          <mxGeometry x="578" y="449" width="25" height="25" as="geometry" />
        </mxCell>
        <mxCell id="6QVBEpiF2g4ADmfY6hBt-13" value="" style="ellipse;whiteSpace=wrap;html=1;aspect=fixed;" vertex="1" parent="1">
          <mxGeometry x="611" y="449" width="25" height="25" as="geometry" />
        </mxCell>
        <mxCell id="6QVBEpiF2g4ADmfY6hBt-14" value="" style="ellipse;whiteSpace=wrap;html=1;aspect=fixed;" vertex="1" parent="1">
          <mxGeometry x="644" y="449" width="25" height="25" as="geometry" />
        </mxCell>
        <mxCell id="6QVBEpiF2g4ADmfY6hBt-15" value="" style="endArrow=none;dashed=1;html=1;strokeWidth=13;rounded=0;dashPattern=1 2;" edge="1" parent="1">
          <mxGeometry width="50" height="50" relative="1" as="geometry">
            <mxPoint x="367" y="461" as="sourcePoint" />
            <mxPoint x="465" y="461" as="targetPoint" />
          </mxGeometry>
        </mxCell>
        <mxCell id="6QVBEpiF2g4ADmfY6hBt-16" value="Tempeture: /s" style="text;html=1;align=center;verticalAlign=middle;whiteSpace=wrap;rounded=0;" vertex="1" parent="1">
          <mxGeometry x="25" y="446.5" width="95" height="30" as="geometry" />
        </mxCell>
        <mxCell id="6QVBEpiF2g4ADmfY6hBt-17" value="" style="rounded=0;whiteSpace=wrap;html=1;fillColor=none;" vertex="1" parent="1">
          <mxGeometry x="150" y="447" width="204" height="29" as="geometry" />
        </mxCell>
        <mxCell id="6QVBEpiF2g4ADmfY6hBt-18" value="TD &amp;gt; 3" style="rounded=1;whiteSpace=wrap;html=1;" vertex="1" parent="1">
          <mxGeometry x="213" y="391" width="72" height="23" as="geometry" />
        </mxCell>
        <mxCell id="6QVBEpiF2g4ADmfY6hBt-19" value="" style="shape=flexArrow;endArrow=classic;html=1;rounded=0;" edge="1" parent="1">
          <mxGeometry width="50" height="50" relative="1" as="geometry">
            <mxPoint x="248.5" y="445.5" as="sourcePoint" />
            <mxPoint x="248.5" y="415.5" as="targetPoint" />
          </mxGeometry>
        </mxCell>
        <mxCell id="6QVBEpiF2g4ADmfY6hBt-20" value="" style="endArrow=none;dashed=1;html=1;strokeWidth=13;rounded=0;dashPattern=1 2;" edge="1" parent="1">
          <mxGeometry width="50" height="50" relative="1" as="geometry">
            <mxPoint x="299" y="402" as="sourcePoint" />
            <mxPoint x="397" y="402" as="targetPoint" />
          </mxGeometry>
        </mxCell>
        <mxCell id="6QVBEpiF2g4ADmfY6hBt-21" value="TD &amp;gt; 3" style="rounded=1;whiteSpace=wrap;html=1;" vertex="1" parent="1">
          <mxGeometry x="407" y="391" width="72" height="23" as="geometry" />
        </mxCell>
        <mxCell id="6QVBEpiF2g4ADmfY6hBt-22" value="Total: n&lt;sub&gt;t&lt;/sub&gt;" style="text;html=1;align=center;verticalAlign=middle;whiteSpace=wrap;rounded=0;" vertex="1" parent="1">
          <mxGeometry x="93" y="419" width="60" height="30" as="geometry" />
        </mxCell>
        <mxCell id="6QVBEpiF2g4ADmfY6hBt-23" value="Total: TD&lt;sub&gt;t&lt;/sub&gt;" style="text;html=1;align=center;verticalAlign=middle;whiteSpace=wrap;rounded=0;" vertex="1" parent="1">
          <mxGeometry x="93" y="384" width="60" height="30" as="geometry" />
        </mxCell>
        <mxCell id="6QVBEpiF2g4ADmfY6hBt-24" value="" style="rounded=1;whiteSpace=wrap;html=1;" vertex="1" parent="1">
          <mxGeometry x="594" y="391" width="72" height="23" as="geometry" />
        </mxCell>
        <mxCell id="6QVBEpiF2g4ADmfY6hBt-26" value="" style="endArrow=none;dashed=1;html=1;strokeWidth=13;rounded=0;dashPattern=1 2;" edge="1" parent="1">
          <mxGeometry width="50" height="50" relative="1" as="geometry">
            <mxPoint x="492" y="402" as="sourcePoint" />
            <mxPoint x="590" y="402" as="targetPoint" />
          </mxGeometry>
        </mxCell>
        <mxCell id="6QVBEpiF2g4ADmfY6hBt-27" value="" style="endArrow=classic;html=1;rounded=0;" edge="1" parent="1">
          <mxGeometry width="50" height="50" relative="1" as="geometry">
            <mxPoint x="98" y="257" as="sourcePoint" />
            <mxPoint x="798" y="257" as="targetPoint" />
          </mxGeometry>
        </mxCell>
        <mxCell id="6QVBEpiF2g4ADmfY6hBt-28" value="" style="endArrow=none;dashed=1;html=1;dashPattern=1 3;strokeWidth=8;rounded=0;" edge="1" parent="1">
          <mxGeometry width="50" height="50" relative="1" as="geometry">
            <mxPoint x="130" y="262" as="sourcePoint" />
            <mxPoint x="737" y="262" as="targetPoint" />
          </mxGeometry>
        </mxCell>
        <mxCell id="6QVBEpiF2g4ADmfY6hBt-29" value="Pressure: /min" style="text;html=1;align=center;verticalAlign=middle;whiteSpace=wrap;rounded=0;" vertex="1" parent="1">
          <mxGeometry x="25" y="254" width="95" height="30" as="geometry" />
        </mxCell>
        <mxCell id="6QVBEpiF2g4ADmfY6hBt-31" value="1000" style="ellipse;whiteSpace=wrap;html=1;aspect=fixed;" vertex="1" parent="1">
          <mxGeometry x="153" y="273" width="25" height="25" as="geometry" />
        </mxCell>
        <mxCell id="6QVBEpiF2g4ADmfY6hBt-32" value="1020" style="ellipse;whiteSpace=wrap;html=1;aspect=fixed;" vertex="1" parent="1">
          <mxGeometry x="219" y="273" width="25" height="25" as="geometry" />
        </mxCell>
        <mxCell id="6QVBEpiF2g4ADmfY6hBt-33" value="1010" style="ellipse;whiteSpace=wrap;html=1;aspect=fixed;" vertex="1" parent="1">
          <mxGeometry x="285" y="273" width="25" height="25" as="geometry" />
        </mxCell>
        <mxCell id="6QVBEpiF2g4ADmfY6hBt-34" value="990" style="ellipse;whiteSpace=wrap;html=1;aspect=fixed;" vertex="1" parent="1">
          <mxGeometry x="351" y="273" width="25" height="25" as="geometry" />
        </mxCell>
        <mxCell id="6QVBEpiF2g4ADmfY6hBt-35" value="1010" style="ellipse;whiteSpace=wrap;html=1;aspect=fixed;" vertex="1" parent="1">
          <mxGeometry x="417" y="273" width="25" height="25" as="geometry" />
        </mxCell>
        <mxCell id="6QVBEpiF2g4ADmfY6hBt-36" value="1050" style="ellipse;whiteSpace=wrap;html=1;aspect=fixed;" vertex="1" parent="1">
          <mxGeometry x="483" y="273" width="25" height="25" as="geometry" />
        </mxCell>
        <mxCell id="6QVBEpiF2g4ADmfY6hBt-37" value="1060" style="ellipse;whiteSpace=wrap;html=1;aspect=fixed;" vertex="1" parent="1">
          <mxGeometry x="549" y="273" width="25" height="25" as="geometry" />
        </mxCell>
        <mxCell id="6QVBEpiF2g4ADmfY6hBt-38" value="1070" style="ellipse;whiteSpace=wrap;html=1;aspect=fixed;" vertex="1" parent="1">
          <mxGeometry x="615" y="273" width="25" height="25" as="geometry" />
        </mxCell>
        <mxCell id="6QVBEpiF2g4ADmfY6hBt-39" value="1080" style="ellipse;whiteSpace=wrap;html=1;aspect=fixed;" vertex="1" parent="1">
          <mxGeometry x="681" y="273" width="25" height="25" as="geometry" />
        </mxCell>
        <mxCell id="6QVBEpiF2g4ADmfY6hBt-40" value="" style="rounded=1;whiteSpace=wrap;html=1;fillColor=none;" vertex="1" parent="1">
          <mxGeometry x="337" y="269" width="190" height="33" as="geometry" />
        </mxCell>
        <mxCell id="6QVBEpiF2g4ADmfY6hBt-41" value="PD &amp;gt; 3" style="rounded=1;whiteSpace=wrap;html=1;" vertex="1" parent="1">
          <mxGeometry x="393.5" y="335" width="72" height="23" as="geometry" />
        </mxCell>
        <mxCell id="6QVBEpiF2g4ADmfY6hBt-42" value="" style="shape=flexArrow;endArrow=classic;html=1;rounded=0;" edge="1" parent="1">
          <mxGeometry width="50" height="50" relative="1" as="geometry">
            <mxPoint x="430" y="304" as="sourcePoint" />
            <mxPoint x="430" y="334" as="targetPoint" />
          </mxGeometry>
        </mxCell>
        <mxCell id="6QVBEpiF2g4ADmfY6hBt-43" value="" style="shape=curlyBracket;whiteSpace=wrap;html=1;rounded=1;labelPosition=left;verticalLabelPosition=middle;align=right;verticalAlign=middle;rotation=90;" vertex="1" parent="1">
          <mxGeometry x="422.5" y="257.5" width="20" height="227" as="geometry" />
        </mxCell>
        <mxCell id="6QVBEpiF2g4ADmfY6hBt-44" value="Meaningful: TD&lt;sub&gt;m&lt;/sub&gt;" style="text;html=1;align=center;verticalAlign=middle;whiteSpace=wrap;rounded=0;" vertex="1" parent="1">
          <mxGeometry x="495" y="343" width="103" height="30" as="geometry" />
        </mxCell>
        <mxCell id="6QVBEpiF2g4ADmfY6hBt-45" value="Useless: TD&lt;sub&gt;u&lt;/sub&gt;" style="text;html=1;align=center;verticalAlign=middle;whiteSpace=wrap;rounded=0;" vertex="1" parent="1">
          <mxGeometry x="197" y="335" width="107" height="30" as="geometry" />
        </mxCell>
        <mxCell id="6QVBEpiF2g4ADmfY6hBt-46" value="" style="shape=curlyBracket;whiteSpace=wrap;html=1;rounded=1;labelPosition=left;verticalLabelPosition=middle;align=right;verticalAlign=middle;rotation=90;" vertex="1" parent="1">
          <mxGeometry x="246" y="311" width="20" height="120" as="geometry" />
        </mxCell>
        <mxCell id="6QVBEpiF2g4ADmfY6hBt-48" value="TD&lt;sub&gt;m&lt;/sub&gt; &amp;lt;&amp;lt; TD&lt;sub&gt;u&lt;/sub&gt;" style="text;html=1;align=center;verticalAlign=middle;whiteSpace=wrap;rounded=0;" vertex="1" parent="1">
          <mxGeometry x="606" y="343" width="130" height="30" as="geometry" />
        </mxCell>
      </root>
    </mxGraphModel>
  </diagram>
  <diagram id="pVb38rLGfYjxHOD5e9jQ" name="暴力解决方案">
    <mxGraphModel dx="1834" dy="786" grid="0" gridSize="10" guides="1" tooltips="1" connect="1" arrows="1" fold="1" page="0" pageScale="1" pageWidth="1200" pageHeight="1920" math="0" shadow="0">
      <root>
        <mxCell id="0" />
        <mxCell id="1" parent="0" />
        <mxCell id="UmA5ZqCV6AUgnPsLizes-1" value="" style="endArrow=classic;html=1;rounded=0;" edge="1" parent="1">
          <mxGeometry width="50" height="50" relative="1" as="geometry">
            <mxPoint x="-120" y="274" as="sourcePoint" />
            <mxPoint x="580" y="274" as="targetPoint" />
          </mxGeometry>
        </mxCell>
        <mxCell id="UmA5ZqCV6AUgnPsLizes-2" value="" style="endArrow=none;dashed=1;html=1;dashPattern=1 3;strokeWidth=8;rounded=0;" edge="1" parent="1">
          <mxGeometry width="50" height="50" relative="1" as="geometry">
            <mxPoint x="-88" y="270" as="sourcePoint" />
            <mxPoint x="519" y="270" as="targetPoint" />
          </mxGeometry>
        </mxCell>
        <mxCell id="UmA5ZqCV6AUgnPsLizes-3" value="-160" style="ellipse;whiteSpace=wrap;html=1;aspect=fixed;" vertex="1" parent="1">
          <mxGeometry x="-65" y="231" width="25" height="25" as="geometry" />
        </mxCell>
        <mxCell id="UmA5ZqCV6AUgnPsLizes-4" value="-162" style="ellipse;whiteSpace=wrap;html=1;aspect=fixed;" vertex="1" parent="1">
          <mxGeometry x="-32" y="231" width="25" height="25" as="geometry" />
        </mxCell>
        <mxCell id="UmA5ZqCV6AUgnPsLizes-5" value="-161" style="ellipse;whiteSpace=wrap;html=1;aspect=fixed;" vertex="1" parent="1">
          <mxGeometry x="1" y="231" width="25" height="25" as="geometry" />
        </mxCell>
        <mxCell id="UmA5ZqCV6AUgnPsLizes-6" value="-160" style="ellipse;whiteSpace=wrap;html=1;aspect=fixed;" vertex="1" parent="1">
          <mxGeometry x="34" y="231" width="25" height="25" as="geometry" />
        </mxCell>
        <mxCell id="UmA5ZqCV6AUgnPsLizes-7" value="-158" style="ellipse;whiteSpace=wrap;html=1;aspect=fixed;" vertex="1" parent="1">
          <mxGeometry x="67" y="231" width="25" height="25" as="geometry" />
        </mxCell>
        <mxCell id="UmA5ZqCV6AUgnPsLizes-8" value="-160" style="ellipse;whiteSpace=wrap;html=1;aspect=fixed;" vertex="1" parent="1">
          <mxGeometry x="100" y="231" width="25" height="25" as="geometry" />
        </mxCell>
        <mxCell id="UmA5ZqCV6AUgnPsLizes-9" value="" style="ellipse;whiteSpace=wrap;html=1;aspect=fixed;" vertex="1" parent="1">
          <mxGeometry x="261" y="231" width="25" height="25" as="geometry" />
        </mxCell>
        <mxCell id="UmA5ZqCV6AUgnPsLizes-10" value="" style="ellipse;whiteSpace=wrap;html=1;aspect=fixed;" vertex="1" parent="1">
          <mxGeometry x="294" y="231" width="25" height="25" as="geometry" />
        </mxCell>
        <mxCell id="UmA5ZqCV6AUgnPsLizes-11" value="" style="ellipse;whiteSpace=wrap;html=1;aspect=fixed;" vertex="1" parent="1">
          <mxGeometry x="327" y="231" width="25" height="25" as="geometry" />
        </mxCell>
        <mxCell id="UmA5ZqCV6AUgnPsLizes-12" value="" style="ellipse;whiteSpace=wrap;html=1;aspect=fixed;" vertex="1" parent="1">
          <mxGeometry x="360" y="231" width="25" height="25" as="geometry" />
        </mxCell>
        <mxCell id="UmA5ZqCV6AUgnPsLizes-13" value="" style="ellipse;whiteSpace=wrap;html=1;aspect=fixed;" vertex="1" parent="1">
          <mxGeometry x="393" y="231" width="25" height="25" as="geometry" />
        </mxCell>
        <mxCell id="UmA5ZqCV6AUgnPsLizes-14" value="" style="ellipse;whiteSpace=wrap;html=1;aspect=fixed;" vertex="1" parent="1">
          <mxGeometry x="426" y="231" width="25" height="25" as="geometry" />
        </mxCell>
        <mxCell id="UmA5ZqCV6AUgnPsLizes-15" value="" style="endArrow=none;dashed=1;html=1;strokeWidth=13;rounded=0;dashPattern=1 2;" edge="1" parent="1">
          <mxGeometry width="50" height="50" relative="1" as="geometry">
            <mxPoint x="149" y="243" as="sourcePoint" />
            <mxPoint x="247" y="243" as="targetPoint" />
          </mxGeometry>
        </mxCell>
        <mxCell id="UmA5ZqCV6AUgnPsLizes-16" value="Tempeture: /s" style="text;html=1;align=center;verticalAlign=middle;whiteSpace=wrap;rounded=0;" vertex="1" parent="1">
          <mxGeometry x="-193" y="228.5" width="95" height="30" as="geometry" />
        </mxCell>
        <mxCell id="UmA5ZqCV6AUgnPsLizes-17" value="" style="rounded=0;whiteSpace=wrap;html=1;fillColor=none;" vertex="1" parent="1">
          <mxGeometry x="66" y="229" width="289" height="29" as="geometry" />
        </mxCell>
        <mxCell id="UmA5ZqCV6AUgnPsLizes-18" value="TD &amp;gt; 3" style="rounded=1;whiteSpace=wrap;html=1;" vertex="1" parent="1">
          <mxGeometry x="-5" y="173" width="72" height="23" as="geometry" />
        </mxCell>
        <mxCell id="UmA5ZqCV6AUgnPsLizes-19" value="" style="shape=flexArrow;endArrow=classic;html=1;rounded=0;" edge="1" parent="1">
          <mxGeometry width="50" height="50" relative="1" as="geometry">
            <mxPoint x="219" y="226" as="sourcePoint" />
            <mxPoint x="219" y="196" as="targetPoint" />
          </mxGeometry>
        </mxCell>
        <mxCell id="UmA5ZqCV6AUgnPsLizes-20" value="" style="endArrow=none;dashed=1;html=1;strokeWidth=13;rounded=0;dashPattern=1 2;" edge="1" parent="1">
          <mxGeometry width="50" height="50" relative="1" as="geometry">
            <mxPoint x="81" y="184" as="sourcePoint" />
            <mxPoint x="179" y="184" as="targetPoint" />
          </mxGeometry>
        </mxCell>
        <mxCell id="UmA5ZqCV6AUgnPsLizes-21" value="TD &amp;gt; 3" style="rounded=1;whiteSpace=wrap;html=1;" vertex="1" parent="1">
          <mxGeometry x="189" y="173" width="72" height="23" as="geometry" />
        </mxCell>
        <mxCell id="UmA5ZqCV6AUgnPsLizes-22" value="Total: n&lt;sub&gt;t&lt;/sub&gt;" style="text;html=1;align=center;verticalAlign=middle;whiteSpace=wrap;rounded=0;" vertex="1" parent="1">
          <mxGeometry x="-125" y="201" width="60" height="30" as="geometry" />
        </mxCell>
        <mxCell id="UmA5ZqCV6AUgnPsLizes-23" value="Total: TD&lt;sub&gt;t&lt;/sub&gt;" style="text;html=1;align=center;verticalAlign=middle;whiteSpace=wrap;rounded=0;" vertex="1" parent="1">
          <mxGeometry x="-125" y="166" width="60" height="30" as="geometry" />
        </mxCell>
        <mxCell id="UmA5ZqCV6AUgnPsLizes-24" value="" style="rounded=1;whiteSpace=wrap;html=1;" vertex="1" parent="1">
          <mxGeometry x="376" y="173" width="72" height="23" as="geometry" />
        </mxCell>
        <mxCell id="UmA5ZqCV6AUgnPsLizes-25" value="" style="endArrow=none;dashed=1;html=1;strokeWidth=13;rounded=0;dashPattern=1 2;" edge="1" parent="1">
          <mxGeometry width="50" height="50" relative="1" as="geometry">
            <mxPoint x="274" y="184" as="sourcePoint" />
            <mxPoint x="372" y="184" as="targetPoint" />
          </mxGeometry>
        </mxCell>
        <mxCell id="UmA5ZqCV6AUgnPsLizes-26" value="" style="endArrow=classic;html=1;rounded=0;" edge="1" parent="1">
          <mxGeometry width="50" height="50" relative="1" as="geometry">
            <mxPoint x="-120" y="39" as="sourcePoint" />
            <mxPoint x="580" y="39" as="targetPoint" />
          </mxGeometry>
        </mxCell>
        <mxCell id="UmA5ZqCV6AUgnPsLizes-27" value="" style="endArrow=none;dashed=1;html=1;dashPattern=1 3;strokeWidth=8;rounded=0;" edge="1" parent="1">
          <mxGeometry width="50" height="50" relative="1" as="geometry">
            <mxPoint x="-88" y="44" as="sourcePoint" />
            <mxPoint x="519" y="44" as="targetPoint" />
          </mxGeometry>
        </mxCell>
        <mxCell id="UmA5ZqCV6AUgnPsLizes-28" value="Pressure: /min" style="text;html=1;align=center;verticalAlign=middle;whiteSpace=wrap;rounded=0;" vertex="1" parent="1">
          <mxGeometry x="-193" y="36" width="95" height="30" as="geometry" />
        </mxCell>
        <mxCell id="UmA5ZqCV6AUgnPsLizes-29" value="1000" style="ellipse;whiteSpace=wrap;html=1;aspect=fixed;" vertex="1" parent="1">
          <mxGeometry x="-65" y="55" width="25" height="25" as="geometry" />
        </mxCell>
        <mxCell id="UmA5ZqCV6AUgnPsLizes-30" value="1020" style="ellipse;whiteSpace=wrap;html=1;aspect=fixed;" vertex="1" parent="1">
          <mxGeometry x="1" y="55" width="25" height="25" as="geometry" />
        </mxCell>
        <mxCell id="UmA5ZqCV6AUgnPsLizes-31" value="1010" style="ellipse;whiteSpace=wrap;html=1;aspect=fixed;" vertex="1" parent="1">
          <mxGeometry x="67" y="55" width="25" height="25" as="geometry" />
        </mxCell>
        <mxCell id="UmA5ZqCV6AUgnPsLizes-32" value="990" style="ellipse;whiteSpace=wrap;html=1;aspect=fixed;" vertex="1" parent="1">
          <mxGeometry x="133" y="55" width="25" height="25" as="geometry" />
        </mxCell>
        <mxCell id="UmA5ZqCV6AUgnPsLizes-33" value="1010" style="ellipse;whiteSpace=wrap;html=1;aspect=fixed;" vertex="1" parent="1">
          <mxGeometry x="199" y="55" width="25" height="25" as="geometry" />
        </mxCell>
        <mxCell id="UmA5ZqCV6AUgnPsLizes-34" value="1050" style="ellipse;whiteSpace=wrap;html=1;aspect=fixed;" vertex="1" parent="1">
          <mxGeometry x="265" y="55" width="25" height="25" as="geometry" />
        </mxCell>
        <mxCell id="UmA5ZqCV6AUgnPsLizes-35" value="1060" style="ellipse;whiteSpace=wrap;html=1;aspect=fixed;" vertex="1" parent="1">
          <mxGeometry x="331" y="55" width="25" height="25" as="geometry" />
        </mxCell>
        <mxCell id="UmA5ZqCV6AUgnPsLizes-36" value="1070" style="ellipse;whiteSpace=wrap;html=1;aspect=fixed;" vertex="1" parent="1">
          <mxGeometry x="397" y="55" width="25" height="25" as="geometry" />
        </mxCell>
        <mxCell id="UmA5ZqCV6AUgnPsLizes-37" value="1080" style="ellipse;whiteSpace=wrap;html=1;aspect=fixed;" vertex="1" parent="1">
          <mxGeometry x="463" y="55" width="25" height="25" as="geometry" />
        </mxCell>
        <mxCell id="UmA5ZqCV6AUgnPsLizes-38" value="" style="rounded=1;whiteSpace=wrap;html=1;fillColor=none;" vertex="1" parent="1">
          <mxGeometry x="119" y="51" width="190" height="33" as="geometry" />
        </mxCell>
        <mxCell id="UmA5ZqCV6AUgnPsLizes-39" value="PD &amp;gt; 3" style="rounded=1;whiteSpace=wrap;html=1;" vertex="1" parent="1">
          <mxGeometry x="175.5" y="117" width="72" height="23" as="geometry" />
        </mxCell>
        <mxCell id="UmA5ZqCV6AUgnPsLizes-40" value="" style="shape=flexArrow;endArrow=classic;html=1;rounded=0;" edge="1" parent="1">
          <mxGeometry width="50" height="50" relative="1" as="geometry">
            <mxPoint x="212" y="86" as="sourcePoint" />
            <mxPoint x="212" y="116" as="targetPoint" />
          </mxGeometry>
        </mxCell>
        <mxCell id="UmA5ZqCV6AUgnPsLizes-41" value="" style="shape=curlyBracket;whiteSpace=wrap;html=1;rounded=1;labelPosition=left;verticalLabelPosition=middle;align=right;verticalAlign=middle;rotation=90;" vertex="1" parent="1">
          <mxGeometry x="204.5" y="39.5" width="20" height="227" as="geometry" />
        </mxCell>
        <mxCell id="UmA5ZqCV6AUgnPsLizes-42" value="Meaningful: TD&lt;sub&gt;m&lt;/sub&gt;" style="text;html=1;align=center;verticalAlign=middle;whiteSpace=wrap;rounded=0;" vertex="1" parent="1">
          <mxGeometry x="277" y="125" width="103" height="30" as="geometry" />
        </mxCell>
        <mxCell id="UmA5ZqCV6AUgnPsLizes-43" value="Useless: TD&lt;sub&gt;u&lt;/sub&gt;" style="text;html=1;align=center;verticalAlign=middle;whiteSpace=wrap;rounded=0;" vertex="1" parent="1">
          <mxGeometry x="-21" y="117" width="107" height="30" as="geometry" />
        </mxCell>
        <mxCell id="UmA5ZqCV6AUgnPsLizes-44" value="" style="shape=curlyBracket;whiteSpace=wrap;html=1;rounded=1;labelPosition=left;verticalLabelPosition=middle;align=right;verticalAlign=middle;rotation=90;" vertex="1" parent="1">
          <mxGeometry x="28" y="93" width="20" height="120" as="geometry" />
        </mxCell>
        <mxCell id="UmA5ZqCV6AUgnPsLizes-45" value="TD&lt;sub&gt;m&lt;/sub&gt; &amp;lt;&amp;lt; TD&lt;sub&gt;u&lt;/sub&gt;" style="text;html=1;align=center;verticalAlign=middle;whiteSpace=wrap;rounded=0;" vertex="1" parent="1">
          <mxGeometry x="388" y="125" width="130" height="30" as="geometry" />
        </mxCell>
        <mxCell id="UmA5ZqCV6AUgnPsLizes-46" value="W&lt;sub&gt;P&lt;/sub&gt;： 10min" style="text;html=1;align=center;verticalAlign=middle;whiteSpace=wrap;rounded=0;" vertex="1" parent="1">
          <mxGeometry x="281" y="87" width="85" height="30" as="geometry" />
        </mxCell>
        <mxCell id="UmA5ZqCV6AUgnPsLizes-47" value="W&lt;sub&gt;T&lt;/sub&gt;： 10min" style="text;html=1;align=center;verticalAlign=middle;whiteSpace=wrap;rounded=0;" vertex="1" parent="1">
          <mxGeometry x="275" y="206" width="85" height="30" as="geometry" />
        </mxCell>
      </root>
    </mxGraphModel>
  </diagram>
  <diagram id="HicYOSfZbAJhqJ-AVK_l" name="利用区间事件减少存储">
    <mxGraphModel dx="1834" dy="786" grid="0" gridSize="10" guides="1" tooltips="1" connect="1" arrows="1" fold="1" page="0" pageScale="1" pageWidth="1200" pageHeight="1920" math="0" shadow="0">
      <root>
        <mxCell id="0" />
        <mxCell id="1" parent="0" />
        <mxCell id="Jddjw8EoNW6Ry0THIPuE-1" value="" style="endArrow=classic;html=1;rounded=0;" edge="1" parent="1">
          <mxGeometry width="50" height="50" relative="1" as="geometry">
            <mxPoint x="-120" y="274" as="sourcePoint" />
            <mxPoint x="580" y="274" as="targetPoint" />
          </mxGeometry>
        </mxCell>
        <mxCell id="Jddjw8EoNW6Ry0THIPuE-2" value="" style="endArrow=none;dashed=1;html=1;dashPattern=1 3;strokeWidth=8;rounded=0;" edge="1" parent="1">
          <mxGeometry width="50" height="50" relative="1" as="geometry">
            <mxPoint x="-88" y="270" as="sourcePoint" />
            <mxPoint x="519" y="270" as="targetPoint" />
          </mxGeometry>
        </mxCell>
        <mxCell id="Jddjw8EoNW6Ry0THIPuE-3" value="-160" style="ellipse;whiteSpace=wrap;html=1;aspect=fixed;" vertex="1" parent="1">
          <mxGeometry x="-65" y="231" width="25" height="25" as="geometry" />
        </mxCell>
        <mxCell id="Jddjw8EoNW6Ry0THIPuE-4" value="-162" style="ellipse;whiteSpace=wrap;html=1;aspect=fixed;" vertex="1" parent="1">
          <mxGeometry x="-32" y="231" width="25" height="25" as="geometry" />
        </mxCell>
        <mxCell id="Jddjw8EoNW6Ry0THIPuE-5" value="-161" style="ellipse;whiteSpace=wrap;html=1;aspect=fixed;" vertex="1" parent="1">
          <mxGeometry x="1" y="231" width="25" height="25" as="geometry" />
        </mxCell>
        <mxCell id="Jddjw8EoNW6Ry0THIPuE-6" value="-160" style="ellipse;whiteSpace=wrap;html=1;aspect=fixed;" vertex="1" parent="1">
          <mxGeometry x="34" y="231" width="25" height="25" as="geometry" />
        </mxCell>
        <mxCell id="Jddjw8EoNW6Ry0THIPuE-7" value="-158" style="ellipse;whiteSpace=wrap;html=1;aspect=fixed;" vertex="1" parent="1">
          <mxGeometry x="67" y="231" width="25" height="25" as="geometry" />
        </mxCell>
        <mxCell id="Jddjw8EoNW6Ry0THIPuE-8" value="-160" style="ellipse;whiteSpace=wrap;html=1;aspect=fixed;" vertex="1" parent="1">
          <mxGeometry x="100" y="231" width="25" height="25" as="geometry" />
        </mxCell>
        <mxCell id="Jddjw8EoNW6Ry0THIPuE-9" value="" style="ellipse;whiteSpace=wrap;html=1;aspect=fixed;" vertex="1" parent="1">
          <mxGeometry x="261" y="231" width="25" height="25" as="geometry" />
        </mxCell>
        <mxCell id="Jddjw8EoNW6Ry0THIPuE-10" value="" style="ellipse;whiteSpace=wrap;html=1;aspect=fixed;" vertex="1" parent="1">
          <mxGeometry x="294" y="231" width="25" height="25" as="geometry" />
        </mxCell>
        <mxCell id="Jddjw8EoNW6Ry0THIPuE-11" value="" style="ellipse;whiteSpace=wrap;html=1;aspect=fixed;" vertex="1" parent="1">
          <mxGeometry x="327" y="231" width="25" height="25" as="geometry" />
        </mxCell>
        <mxCell id="Jddjw8EoNW6Ry0THIPuE-12" value="" style="ellipse;whiteSpace=wrap;html=1;aspect=fixed;" vertex="1" parent="1">
          <mxGeometry x="360" y="231" width="25" height="25" as="geometry" />
        </mxCell>
        <mxCell id="Jddjw8EoNW6Ry0THIPuE-13" value="" style="ellipse;whiteSpace=wrap;html=1;aspect=fixed;" vertex="1" parent="1">
          <mxGeometry x="393" y="231" width="25" height="25" as="geometry" />
        </mxCell>
        <mxCell id="Jddjw8EoNW6Ry0THIPuE-14" value="" style="ellipse;whiteSpace=wrap;html=1;aspect=fixed;" vertex="1" parent="1">
          <mxGeometry x="426" y="231" width="25" height="25" as="geometry" />
        </mxCell>
        <mxCell id="Jddjw8EoNW6Ry0THIPuE-15" value="" style="endArrow=none;dashed=1;html=1;strokeWidth=13;rounded=0;dashPattern=1 2;" edge="1" parent="1">
          <mxGeometry width="50" height="50" relative="1" as="geometry">
            <mxPoint x="149" y="243" as="sourcePoint" />
            <mxPoint x="247" y="243" as="targetPoint" />
          </mxGeometry>
        </mxCell>
        <mxCell id="Jddjw8EoNW6Ry0THIPuE-16" value="Tempeture: /s" style="text;html=1;align=center;verticalAlign=middle;whiteSpace=wrap;rounded=0;" vertex="1" parent="1">
          <mxGeometry x="-193" y="228.5" width="95" height="30" as="geometry" />
        </mxCell>
        <mxCell id="Jddjw8EoNW6Ry0THIPuE-17" value="" style="rounded=0;whiteSpace=wrap;html=1;fillColor=none;" vertex="1" parent="1">
          <mxGeometry x="66" y="229" width="289" height="29" as="geometry" />
        </mxCell>
        <mxCell id="Jddjw8EoNW6Ry0THIPuE-18" value="TR&amp;amp;TD &amp;gt; 3" style="rounded=1;whiteSpace=wrap;html=1;" vertex="1" parent="1">
          <mxGeometry x="-5" y="173" width="72" height="23" as="geometry" />
        </mxCell>
        <mxCell id="Jddjw8EoNW6Ry0THIPuE-19" value="" style="shape=flexArrow;endArrow=classic;html=1;rounded=0;" edge="1" parent="1">
          <mxGeometry width="50" height="50" relative="1" as="geometry">
            <mxPoint x="219" y="226" as="sourcePoint" />
            <mxPoint x="219" y="196" as="targetPoint" />
          </mxGeometry>
        </mxCell>
        <mxCell id="Jddjw8EoNW6Ry0THIPuE-20" value="" style="endArrow=none;dashed=1;html=1;strokeWidth=13;rounded=0;dashPattern=1 2;" edge="1" parent="1">
          <mxGeometry width="50" height="50" relative="1" as="geometry">
            <mxPoint x="81" y="184" as="sourcePoint" />
            <mxPoint x="179" y="184" as="targetPoint" />
          </mxGeometry>
        </mxCell>
        <mxCell id="Jddjw8EoNW6Ry0THIPuE-21" value="TR&amp;amp;TD &amp;gt; 3" style="rounded=1;whiteSpace=wrap;html=1;" vertex="1" parent="1">
          <mxGeometry x="189" y="173" width="72" height="23" as="geometry" />
        </mxCell>
        <mxCell id="Jddjw8EoNW6Ry0THIPuE-22" value="Total: n&lt;sub&gt;t&lt;/sub&gt;" style="text;html=1;align=center;verticalAlign=middle;whiteSpace=wrap;rounded=0;" vertex="1" parent="1">
          <mxGeometry x="-125" y="201" width="60" height="30" as="geometry" />
        </mxCell>
        <mxCell id="Jddjw8EoNW6Ry0THIPuE-23" value="Total: TD&lt;sub&gt;t&lt;/sub&gt;" style="text;html=1;align=center;verticalAlign=middle;whiteSpace=wrap;rounded=0;" vertex="1" parent="1">
          <mxGeometry x="-125" y="166" width="60" height="30" as="geometry" />
        </mxCell>
        <mxCell id="Jddjw8EoNW6Ry0THIPuE-24" value="" style="rounded=1;whiteSpace=wrap;html=1;" vertex="1" parent="1">
          <mxGeometry x="376" y="173" width="72" height="23" as="geometry" />
        </mxCell>
        <mxCell id="Jddjw8EoNW6Ry0THIPuE-25" value="" style="endArrow=none;dashed=1;html=1;strokeWidth=13;rounded=0;dashPattern=1 2;" edge="1" parent="1">
          <mxGeometry width="50" height="50" relative="1" as="geometry">
            <mxPoint x="274" y="184" as="sourcePoint" />
            <mxPoint x="372" y="184" as="targetPoint" />
          </mxGeometry>
        </mxCell>
        <mxCell id="Jddjw8EoNW6Ry0THIPuE-26" value="" style="endArrow=classic;html=1;rounded=0;" edge="1" parent="1">
          <mxGeometry width="50" height="50" relative="1" as="geometry">
            <mxPoint x="-120" y="39" as="sourcePoint" />
            <mxPoint x="580" y="39" as="targetPoint" />
          </mxGeometry>
        </mxCell>
        <mxCell id="Jddjw8EoNW6Ry0THIPuE-27" value="" style="endArrow=none;dashed=1;html=1;dashPattern=1 3;strokeWidth=8;rounded=0;" edge="1" parent="1">
          <mxGeometry width="50" height="50" relative="1" as="geometry">
            <mxPoint x="-88" y="44" as="sourcePoint" />
            <mxPoint x="519" y="44" as="targetPoint" />
          </mxGeometry>
        </mxCell>
        <mxCell id="Jddjw8EoNW6Ry0THIPuE-28" value="Pressure: /min" style="text;html=1;align=center;verticalAlign=middle;whiteSpace=wrap;rounded=0;" vertex="1" parent="1">
          <mxGeometry x="-193" y="36" width="95" height="30" as="geometry" />
        </mxCell>
        <mxCell id="Jddjw8EoNW6Ry0THIPuE-29" value="1000" style="ellipse;whiteSpace=wrap;html=1;aspect=fixed;" vertex="1" parent="1">
          <mxGeometry x="-65" y="55" width="25" height="25" as="geometry" />
        </mxCell>
        <mxCell id="Jddjw8EoNW6Ry0THIPuE-30" value="1020" style="ellipse;whiteSpace=wrap;html=1;aspect=fixed;" vertex="1" parent="1">
          <mxGeometry x="1" y="55" width="25" height="25" as="geometry" />
        </mxCell>
        <mxCell id="Jddjw8EoNW6Ry0THIPuE-31" value="1010" style="ellipse;whiteSpace=wrap;html=1;aspect=fixed;" vertex="1" parent="1">
          <mxGeometry x="67" y="55" width="25" height="25" as="geometry" />
        </mxCell>
        <mxCell id="Jddjw8EoNW6Ry0THIPuE-32" value="990" style="ellipse;whiteSpace=wrap;html=1;aspect=fixed;" vertex="1" parent="1">
          <mxGeometry x="133" y="55" width="25" height="25" as="geometry" />
        </mxCell>
        <mxCell id="Jddjw8EoNW6Ry0THIPuE-33" value="1010" style="ellipse;whiteSpace=wrap;html=1;aspect=fixed;" vertex="1" parent="1">
          <mxGeometry x="199" y="55" width="25" height="25" as="geometry" />
        </mxCell>
        <mxCell id="Jddjw8EoNW6Ry0THIPuE-34" value="1050" style="ellipse;whiteSpace=wrap;html=1;aspect=fixed;" vertex="1" parent="1">
          <mxGeometry x="265" y="55" width="25" height="25" as="geometry" />
        </mxCell>
        <mxCell id="Jddjw8EoNW6Ry0THIPuE-35" value="1060" style="ellipse;whiteSpace=wrap;html=1;aspect=fixed;" vertex="1" parent="1">
          <mxGeometry x="331" y="55" width="25" height="25" as="geometry" />
        </mxCell>
        <mxCell id="Jddjw8EoNW6Ry0THIPuE-36" value="1070" style="ellipse;whiteSpace=wrap;html=1;aspect=fixed;" vertex="1" parent="1">
          <mxGeometry x="397" y="55" width="25" height="25" as="geometry" />
        </mxCell>
        <mxCell id="Jddjw8EoNW6Ry0THIPuE-37" value="1080" style="ellipse;whiteSpace=wrap;html=1;aspect=fixed;" vertex="1" parent="1">
          <mxGeometry x="463" y="55" width="25" height="25" as="geometry" />
        </mxCell>
        <mxCell id="Jddjw8EoNW6Ry0THIPuE-38" value="" style="rounded=1;whiteSpace=wrap;html=1;fillColor=none;" vertex="1" parent="1">
          <mxGeometry x="119" y="51" width="190" height="33" as="geometry" />
        </mxCell>
        <mxCell id="Jddjw8EoNW6Ry0THIPuE-39" value="PR&amp;amp;PD &amp;gt; 3" style="rounded=1;whiteSpace=wrap;html=1;" vertex="1" parent="1">
          <mxGeometry x="175.5" y="117" width="72" height="23" as="geometry" />
        </mxCell>
        <mxCell id="Jddjw8EoNW6Ry0THIPuE-40" value="" style="shape=flexArrow;endArrow=classic;html=1;rounded=0;" edge="1" parent="1">
          <mxGeometry width="50" height="50" relative="1" as="geometry">
            <mxPoint x="212" y="86" as="sourcePoint" />
            <mxPoint x="212" y="116" as="targetPoint" />
          </mxGeometry>
        </mxCell>
        <mxCell id="Jddjw8EoNW6Ry0THIPuE-41" value="" style="shape=curlyBracket;whiteSpace=wrap;html=1;rounded=1;labelPosition=left;verticalLabelPosition=middle;align=right;verticalAlign=middle;rotation=90;" vertex="1" parent="1">
          <mxGeometry x="204.5" y="39.5" width="20" height="227" as="geometry" />
        </mxCell>
        <mxCell id="Jddjw8EoNW6Ry0THIPuE-42" value="Meaningful: TRD&lt;sub&gt;m&lt;/sub&gt;" style="text;html=1;align=center;verticalAlign=middle;whiteSpace=wrap;rounded=0;" vertex="1" parent="1">
          <mxGeometry x="277" y="125" width="103" height="30" as="geometry" />
        </mxCell>
        <mxCell id="Jddjw8EoNW6Ry0THIPuE-43" value="Useless: TRD&lt;sub&gt;u&lt;/sub&gt;" style="text;html=1;align=center;verticalAlign=middle;whiteSpace=wrap;rounded=0;" vertex="1" parent="1">
          <mxGeometry x="-21" y="117" width="107" height="30" as="geometry" />
        </mxCell>
        <mxCell id="Jddjw8EoNW6Ry0THIPuE-44" value="" style="shape=curlyBracket;whiteSpace=wrap;html=1;rounded=1;labelPosition=left;verticalLabelPosition=middle;align=right;verticalAlign=middle;rotation=90;" vertex="1" parent="1">
          <mxGeometry x="28" y="93" width="20" height="120" as="geometry" />
        </mxCell>
        <mxCell id="Jddjw8EoNW6Ry0THIPuE-45" value="TRD&lt;sub&gt;m&lt;/sub&gt; &amp;lt; TD&lt;sub&gt;m&lt;/sub&gt;" style="text;html=1;align=center;verticalAlign=middle;whiteSpace=wrap;rounded=0;" vertex="1" parent="1">
          <mxGeometry x="388" y="125" width="130" height="30" as="geometry" />
        </mxCell>
        <mxCell id="Jddjw8EoNW6Ry0THIPuE-46" value="W&lt;sub&gt;P&lt;/sub&gt;： 10min" style="text;html=1;align=center;verticalAlign=middle;whiteSpace=wrap;rounded=0;" vertex="1" parent="1">
          <mxGeometry x="281" y="87" width="85" height="30" as="geometry" />
        </mxCell>
        <mxCell id="Jddjw8EoNW6Ry0THIPuE-47" value="W&lt;sub&gt;T&lt;/sub&gt;： 10min" style="text;html=1;align=center;verticalAlign=middle;whiteSpace=wrap;rounded=0;" vertex="1" parent="1">
          <mxGeometry x="275" y="206" width="85" height="30" as="geometry" />
        </mxCell>
      </root>
    </mxGraphModel>
  </diagram>
</mxfile>
